<svg width="14" height="14" viewBox="0 0 14 14" fill="none" xmlns="http://www.w3.org/2000/svg">
<path id="Vector" d="M2.74347 0C1.23476 0 0 1.23477 0 2.74347V11.257C0 12.7657 1.23476 14 2.74347 14H11.257C12.7657 14 14 12.7657 14 11.257V2.74347C14 1.23476 12.7657 0 11.257 0H2.74347ZM7.47763 2.61598C8.79455 2.72237 9.55956 3.5728 9.65059 4.66011C9.72132 5.21968 9.70152 5.63492 9.6208 5.9405C10.372 5.96533 11.2509 6.30216 11.3069 7.52453V8.72779C11.229 9.7786 10.8551 11.0763 8.93679 11.3516C8.50485 11.4136 8.02008 11.3721 7.39131 11.3678C6.7591 11.3512 6.20787 11.3542 5.72577 11.363C3.77978 11.3987 2.70795 10.5432 2.69791 8.712C2.68228 8.08882 2.70702 7.41317 2.70493 6.57496C2.69711 6.04379 2.69417 5.48889 2.70624 4.97296C2.70998 4.87227 2.69685 4.7619 2.72333 4.65352C2.80709 3.4729 3.75531 2.78097 4.86211 2.62736L7.47764 2.61596L7.47763 2.61598ZM5.29064 4.25829C4.16966 4.44183 4.11427 5.72107 5.29064 5.87914H7.41847C8.53944 5.6956 8.59484 4.41636 7.41847 4.25829H5.29064ZM4.80732 7.79926C3.65331 7.97841 3.63633 9.43145 4.84851 9.5818L8.75756 9.59582C9.90177 9.4182 9.89839 7.96663 8.71636 7.81285L4.80732 7.79926Z" fill="#018297"/>
</svg>
