<svg width="12" height="10" viewBox="0 0 12 10" fill="none" xmlns="http://www.w3.org/2000/svg">
<path id="Vector" d="M10.5 0H0.875C0.642936 0 0.420376 0.0913802 0.256282 0.254038C0.0921872 0.416696 0 0.637307 0 0.86734V8.6734C0 8.90343 0.0921872 9.12405 0.256282 9.2867C0.420376 9.44936 0.642936 9.54074 0.875 9.54074H10.5C10.7321 9.54074 10.9546 9.44936 11.1187 9.2867C11.2828 9.12405 11.375 8.90343 11.375 8.6734V0.86734C11.375 0.637307 11.2828 0.416696 11.1187 0.254038C10.9546 0.0913802 10.7321 0 10.5 0ZM10.5 0.86734V2.60202H0.875V0.86734H10.5ZM10.5 8.6734H0.875V3.46936H10.5V8.6734Z" fill="#018297"/>
</svg>
