<svg width="16" height="17" viewBox="0 0 16 17" fill="none" xmlns="http://www.w3.org/2000/svg">
<path id="Vector" d="M8 1.00001C8.69287 0.998654 9.37056 1.21538 9.94737 1.62279C10.5242 2.03019 10.9742 2.60997 11.2405 3.28881C11.5069 3.96765 11.5775 4.71506 11.4436 5.43652C11.3097 6.15798 10.9772 6.8211 10.4881 7.34202C9.99912 7.86293 9.37552 8.21824 8.69621 8.36303C8.0169 8.50781 7.31239 8.43556 6.67178 8.15541C6.03116 7.87526 5.48321 7.3998 5.09721 6.78915C4.71121 6.1785 4.5045 5.46008 4.50322 4.72475V4.71791C4.50322 3.73304 4.87142 2.78842 5.52701 2.09137C6.1826 1.39433 7.072 1.00182 8 1.00001ZM8 9.81357C11.914 9.81357 15 12.58 15 13.9577V15.8926H1V13.9231C1 12.5453 4.08566 9.81357 8 9.81357Z" stroke="#018297" stroke-linecap="round" stroke-linejoin="round"/>
</svg>
