<svg width="68" height="13" viewBox="0 0 68 13" fill="none" xmlns="http://www.w3.org/2000/svg">
<g id="Frame 1276">
<path id="Vector" d="M8.06755 5.19231L6.49038 0L4.91322 5.19231H0L4.01106 8.05457L2.48582 12.9808L6.49038 9.93678L10.5014 12.9808L8.9762 8.05457L12.9808 5.19231H8.06755Z" fill="#D27C2C"/>
<path id="Vector_2" d="M21.6974 5.19231L20.1203 0L18.5431 5.19231H13.6299L17.6409 8.05457L16.1157 12.9808L20.1203 9.93678L24.1313 12.9808L22.6061 8.05457L26.6107 5.19231H21.6974Z" fill="#D27C2C"/>
<path id="Vector_3" d="M35.3271 5.19231L33.7499 0L32.1727 5.19231H27.2595L31.2706 8.05457L29.7453 12.9808L33.7499 9.93678L37.761 12.9808L36.2357 8.05457L40.2403 5.19231H35.3271Z" fill="#D27C2C"/>
<path id="Vector_4" d="M48.9567 5.19231L47.3795 0L45.8024 5.19231H40.8892L44.9002 8.05457L43.375 12.9808L47.3795 9.93678L51.3906 12.9808L49.8654 8.05457L53.8699 5.19231H48.9567Z" fill="#D27C2C"/>
<path id="Vector_5" d="M62.5868 5.19231L61.0097 0L59.4325 5.19231H54.5193L58.5303 8.05457L57.0051 12.9808L61.0097 9.93678L65.0207 12.9808L63.4955 8.05457L67.5001 5.19231H62.5868Z" fill="#D27C2C"/>
</g>
</svg>
