<svg width="40" height="40" viewBox="0 0 40 40" fill="none" xmlns="http://www.w3.org/2000/svg">
<g id="fad:roundswitch-on">
<path id="Vector" fill-rule="evenodd" clip-rule="evenodd" d="M3.90625 20C3.90625 18.6458 4.17344 17.3516 4.70781 16.1172C5.24219 14.8828 5.95719 13.8203 6.85313 12.9297C7.74891 12.0391 8.81766 11.3281 10.0594 10.7969C11.3009 10.2656 12.6028 10 13.9648 10H26.0352C27.3972 10 28.6992 10.2656 29.9408 10.7969C31.1823 11.3281 32.2511 12.0391 33.147 12.9297C34.0428 13.8203 34.758 14.8828 35.2923 16.1172C35.8266 17.3516 36.0938 18.6458 36.0938 20C36.0938 21.3542 35.8266 22.6484 35.2922 23.8828C34.7578 25.1172 34.0428 26.1797 33.1469 27.0703C32.2511 27.9609 31.1823 28.6719 29.9406 29.2031C28.6991 29.7344 27.3972 30 26.0352 30H13.9648C12.6028 30 11.3008 29.7344 10.0592 29.2031C8.81766 28.6719 7.74891 27.9609 6.85297 27.0703C5.95719 26.1797 5.24203 25.1172 4.70766 23.8828C4.17344 22.6484 3.90625 21.3542 3.90625 20ZM6.71875 19.99C6.71875 21.0069 6.93125 21.9775 7.35625 22.9016C7.78125 23.8256 8.35578 24.625 9.08 25.2998C9.80406 25.9745 10.662 26.5098 11.6537 26.9059C12.6453 27.302 13.6869 27.5 14.7781 27.5H19.6953C18.8453 26.9059 17.1216 24.977 16.5786 23.8623C16.0355 22.7475 15.697 21.0561 15.697 20.0392C15.697 19.917 15.6936 19.7928 15.6902 19.6647C15.6642 18.7273 15.6328 17.5822 16.8934 15.4722C17.7745 13.9972 19.0722 12.9164 19.6917 12.48H19.7898C20.2019 12.1863 20.0797 12.2069 19.6917 12.48H14.7781C13.6867 12.48 12.6453 12.678 11.6536 13.0739C10.6619 13.47 9.80391 14.0055 9.07984 14.6802C8.35563 15.3548 7.78109 16.1542 7.35609 17.0783C6.9337 17.9907 6.71616 18.9845 6.71875 19.99ZM19.0308 22.9078C18.6353 21.9848 18.4375 21.0156 18.4375 20C18.4375 18.9844 18.6353 18.0152 19.0308 17.0923C19.4262 16.1694 19.9609 15.3711 20.6348 14.6973C21.3086 14.0234 22.1069 13.4887 23.0297 13.0933C23.9527 12.6978 24.9219 12.5 25.9375 12.5C26.9531 12.5 27.9223 12.6978 28.8452 13.0933C29.7681 13.4887 30.5664 14.0234 31.2402 14.6972C31.9141 15.3711 32.4487 16.1694 32.8442 17.0922C33.2397 18.0152 33.4375 18.9844 33.4375 20C33.4375 21.0156 33.2397 21.9848 32.8442 22.9077C32.4487 23.8306 31.9141 24.6289 31.2402 25.3027C30.5664 25.9766 29.7681 26.5112 28.8453 26.9067C27.9223 27.3022 26.9531 27.5 25.9375 27.5C24.9219 27.5 23.9527 27.3022 23.0298 26.9067C22.1069 26.5112 21.3086 25.9766 20.6348 25.3027C19.9609 24.6289 19.4262 23.8306 19.0308 22.9078Z" fill="#018297"/>
</g>
</svg>
