<svg width="18" height="18" viewBox="0 0 18 18" fill="none" xmlns="http://www.w3.org/2000/svg">
<g id="logos:messenger" clip-path="url(#clip0_103_883)">
<path id="Vector" d="M9 0C3.93005 0 0 3.71376 0 8.72999C0 11.3538 1.07529 13.6211 2.82656 15.1871C2.97352 15.3187 3.06225 15.5031 3.0683 15.7003L3.1173 17.3013C3.13298 17.8119 3.6604 18.1442 4.1277 17.9379L5.91405 17.1492C6.06546 17.0825 6.23526 17.07 6.39478 17.114C7.21568 17.3397 8.08931 17.4599 9 17.4599C14.07 17.4599 18 13.7462 18 8.72992C18 3.71369 14.07 0 9 0Z" fill="url(#paint0_radial_103_883)"/>
<path id="Vector_2" d="M3.59587 11.2831L6.23962 7.08874C6.66009 6.42147 7.56065 6.25532 8.19164 6.72853L10.2943 8.30564C10.3882 8.37607 10.5025 8.41398 10.6199 8.41364C10.7373 8.4133 10.8514 8.37472 10.9449 8.30374L13.7846 6.14852C14.1636 5.86087 14.6585 6.31446 14.4048 6.717L11.7611 10.9114C11.3405 11.5786 10.4399 11.7448 9.80897 11.2716L7.7062 9.69445C7.61231 9.62405 7.49804 9.58616 7.38069 9.5865C7.26333 9.58684 7.14929 9.6254 7.05581 9.69635L4.21589 11.8516C3.8369 12.1391 3.34211 11.6856 3.59587 11.2831Z" fill="white"/>
</g>
<defs>
<radialGradient id="paint0_radial_103_883" cx="0" cy="0" r="1" gradientUnits="userSpaceOnUse" gradientTransform="translate(346.446 1790.37) scale(1961.28 1961.28)">
<stop stop-color="#0099FF"/>
<stop offset="0.60975" stop-color="#A033FF"/>
<stop offset="0.93482" stop-color="#FF5280"/>
<stop offset="1" stop-color="#FF7061"/>
</radialGradient>
<clipPath id="clip0_103_883">
<rect width="18" height="18" fill="white"/>
</clipPath>
</defs>
</svg>
