<svg width="18" height="18" viewBox="0 0 18 18" fill="none" xmlns="http://www.w3.org/2000/svg">
<g id="logos:whatsapp-icon" clip-path="url(#clip0_103_879)">
<path id="Vector" d="M0.383945 8.89223C0.383523 10.4046 0.781773 11.8813 1.53904 13.1829L0.311523 17.63L4.89815 16.4367C6.16675 17.1219 7.58812 17.481 9.03252 17.4811H9.03632C13.8046 17.4811 17.686 13.6311 17.6881 8.89899C17.689 6.60595 16.7898 4.44971 15.1562 2.82748C13.5228 1.20538 11.3505 0.311593 9.03597 0.310547C4.26716 0.310547 0.385984 4.16032 0.384016 8.89223" fill="url(#paint0_linear_103_879)"/>
<path id="Vector_2" d="M0.0752344 8.88949C0.0747422 10.4563 0.487266 11.9858 1.27153 13.334L0 17.9405L4.75109 16.7044C6.06016 17.4126 7.53405 17.786 9.03382 17.7866H9.03769C13.977 17.7866 17.9979 13.7981 18 8.8966C18.0008 6.52116 17.0693 4.28742 15.3773 2.60707C13.6851 0.92693 11.4351 0.000976744 9.03769 0C4.09753 0 0.0772031 3.98791 0.0752344 8.88949ZM2.90461 13.1018L2.72721 12.8223C1.98148 11.6458 1.58787 10.2862 1.58843 8.89005C1.59005 4.81598 4.93158 1.5014 9.0405 1.5014C11.0303 1.50223 12.9004 2.27191 14.3069 3.66837C15.7134 5.06498 16.4873 6.92149 16.4868 8.89605C16.485 12.9701 13.1434 16.2851 9.03769 16.2851H9.03473C7.69788 16.2844 6.38677 15.9282 5.24334 15.255L4.97123 15.0949L2.15184 15.8284L2.90461 13.1017V13.1018Z" fill="url(#paint1_linear_103_879)"/>
<path id="Vector_3" d="M6.79738 5.17316C6.62962 4.80318 6.45306 4.79572 6.29352 4.78923C6.16288 4.78365 6.01354 4.78406 5.86433 4.78406C5.71499 4.78406 5.47234 4.83981 5.26724 5.06202C5.06193 5.28444 4.4834 5.82193 4.4834 6.91511C4.4834 8.00837 5.28587 9.06485 5.39774 9.21325C5.50975 9.36137 6.94694 11.6765 9.22309 12.5672C11.1148 13.3073 11.4997 13.1601 11.9103 13.123C12.3209 13.086 13.2353 12.5857 13.4218 12.0668C13.6085 11.548 13.6085 11.1033 13.5525 11.0104C13.4965 10.9178 13.3472 10.8622 13.1233 10.7511C12.8992 10.64 11.7983 10.1024 11.593 10.0283C11.3877 9.95418 11.2385 9.9172 11.0891 10.1397C10.9398 10.3618 10.5109 10.8622 10.3802 11.0104C10.2497 11.1589 10.1189 11.1774 9.89507 11.0663C9.67098 10.9548 8.94979 10.7204 8.09415 9.96353C7.42844 9.37455 6.979 8.64723 6.84836 8.42474C6.71772 8.2026 6.83437 8.08218 6.94666 7.97146C7.04727 7.8719 7.17067 7.71199 7.28275 7.5823C7.3944 7.45253 7.43167 7.35995 7.50634 7.21176C7.58108 7.06344 7.54368 6.93367 7.48778 6.82253C7.43167 6.71139 6.99651 5.61248 6.79738 5.17316Z" fill="white"/>
</g>
<defs>
<linearGradient id="paint0_linear_103_879" x1="869.139" y1="1732.25" x2="869.139" y2="0.310547" gradientUnits="userSpaceOnUse">
<stop stop-color="#1FAF38"/>
<stop offset="1" stop-color="#60D669"/>
</linearGradient>
<linearGradient id="paint1_linear_103_879" x1="900" y1="1794.05" x2="900" y2="0" gradientUnits="userSpaceOnUse">
<stop stop-color="#F9F9F9"/>
<stop offset="1" stop-color="white"/>
</linearGradient>
<clipPath id="clip0_103_879">
<rect width="18" height="18" fill="white"/>
</clipPath>
</defs>
</svg>
