<svg width="14" height="14" viewBox="0 0 14 14" fill="none" xmlns="http://www.w3.org/2000/svg">
<path id="Vector" d="M7.58684 11.1646C7.66514 11.2426 7.72726 11.3353 7.76965 11.4374C7.81204 11.5395 7.83387 11.6489 7.83387 11.7594C7.83387 11.8699 7.81204 11.9794 7.76965 12.0814C7.72726 12.1835 7.66514 12.2762 7.58684 12.3542L7.1711 12.7699C6.38331 13.5575 5.31484 14 4.20073 14C3.08663 14 2.01816 13.5575 1.23037 12.7699C0.442576 11.9822 0 10.914 0 9.80011C0 8.68623 0.442576 7.61797 1.23037 6.83033L2.91852 5.14322C3.67545 4.38457 4.69386 3.94399 5.76516 3.91173C6.83646 3.87946 7.87955 4.25796 8.68078 4.96968C8.7635 5.04319 8.83093 5.13228 8.87921 5.23185C8.9275 5.33141 8.9557 5.43952 8.9622 5.54998C8.96869 5.66044 8.95337 5.77111 8.91709 5.87565C8.88082 5.98019 8.8243 6.07656 8.75077 6.15927C8.67724 6.24197 8.58814 6.30939 8.48855 6.35766C8.38896 6.40594 8.28084 6.43413 8.17035 6.44063C8.05987 6.44712 7.94918 6.4318 7.84462 6.39553C7.74006 6.35926 7.64366 6.30276 7.56094 6.22924C7.08048 5.80262 6.45513 5.57566 5.81282 5.59478C5.17051 5.6139 4.55977 5.87766 4.10555 6.33211L2.41879 8.01712C1.94619 8.48963 1.68069 9.13048 1.68069 9.79871C1.68069 10.4669 1.94619 11.1078 2.41879 11.5803C2.89139 12.0528 3.53238 12.3182 4.20073 12.3182C4.86909 12.3182 5.51007 12.0528 5.98267 11.5803L6.39841 11.1646C6.47641 11.0866 6.56904 11.0246 6.671 10.9824C6.77296 10.9401 6.88225 10.9184 6.99263 10.9184C7.103 10.9184 7.21229 10.9401 7.31425 10.9824C7.41621 11.0246 7.50884 11.0866 7.58684 11.1646ZM12.7717 1.22807C11.9832 0.441651 10.915 0 9.80132 0C8.68761 0 7.61938 0.441651 6.83095 1.22807L6.41521 1.64373C6.25743 1.80148 6.16879 2.01543 6.16879 2.23852C6.16879 2.46161 6.25743 2.67557 6.41521 2.83332C6.57299 2.99107 6.78699 3.07969 7.01012 3.07969C7.23326 3.07969 7.44726 2.99107 7.60504 2.83332L8.02078 2.41766C8.49338 1.94516 9.13436 1.67971 9.80272 1.67971C10.4711 1.67971 11.1121 1.94516 11.5847 2.41766C12.0573 2.89017 12.3228 3.53102 12.3228 4.19924C12.3228 4.86747 12.0573 5.50832 11.5847 5.98083L9.8972 7.66865C9.44258 8.1229 8.8315 8.38628 8.18903 8.40488C7.54656 8.42349 6.92126 8.1959 6.44111 7.76871C6.35839 7.6952 6.26199 7.63869 6.15743 7.60242C6.05287 7.56615 5.94218 7.55083 5.8317 7.55733C5.72121 7.56382 5.61309 7.59202 5.5135 7.64029C5.41391 7.68857 5.32481 7.75598 5.25128 7.83869C5.17775 7.92139 5.12123 8.01776 5.08496 8.12231C5.04868 8.22685 5.03335 8.33751 5.03985 8.44797C5.04635 8.55844 5.07455 8.66654 5.12284 8.76611C5.17112 8.86567 5.23855 8.95476 5.32127 9.02827C6.12194 9.73984 7.16433 10.1186 8.23513 10.087C9.30592 10.0553 10.3241 9.61579 11.0814 8.85823L12.7696 7.17112C13.5571 6.38303 13.9996 5.31472 14 4.20073C14.0004 3.08674 13.5586 2.01811 12.7717 1.22947V1.22807Z" fill="#018297"/>
</svg>
