<svg width="14" height="15" viewBox="0 0 14 15" fill="none" xmlns="http://www.w3.org/2000/svg">
<g id="Group">
<path id="Vector" fill-rule="evenodd" clip-rule="evenodd" d="M3.09192 6.42723C3.09192 5.57383 3.50375 4.75538 4.23681 4.15193C4.96987 3.54849 5.96412 3.20947 7.00082 3.20947C8.03753 3.20947 9.03177 3.54849 9.76484 4.15193C10.4979 4.75538 10.9097 5.57383 10.9097 6.42723C10.9097 7.28064 10.4979 8.09909 9.76484 8.70253C9.03177 9.30598 8.03753 9.64499 7.00082 9.64499C5.96412 9.64499 4.96987 9.30598 4.23681 8.70253C3.50375 8.09909 3.09192 7.28064 3.09192 6.42723ZM7.00082 4.22561C6.2915 4.22561 5.61123 4.45756 5.10966 4.87045C4.60809 5.28333 4.32631 5.84333 4.32631 6.42723C4.32631 7.01114 4.60809 7.57113 5.10966 7.98402C5.61123 8.3969 6.2915 8.62886 7.00082 8.62886C7.71015 8.62886 8.39042 8.3969 8.89199 7.98402C9.39356 7.57113 9.67534 7.01114 9.67534 6.42723C9.67534 5.84333 9.39356 5.28333 8.89199 4.87045C8.39042 4.45756 7.71015 4.22561 7.00082 4.22561Z" fill="#018297"/>
<path id="Vector_2" fill-rule="evenodd" clip-rule="evenodd" d="M0.0248818 5.65316C0.165542 4.24873 0.942632 2.93919 2.20186 1.98456C3.4611 1.02992 5.11038 0.499996 6.82226 0.5H7.17776C8.88964 0.499996 10.5389 1.02992 11.7982 1.98456C13.0574 2.93919 13.8345 4.24873 13.9751 5.65316C14.1317 7.21752 13.5446 8.77084 12.3375 9.98596L8.39323 13.9563C8.22443 14.1263 8.01187 14.2632 7.77093 14.3572C7.52998 14.4512 7.26666 14.5 7.00001 14.5C6.73336 14.5 6.47005 14.4512 6.2291 14.3572C5.98815 14.2632 5.7756 14.1263 5.6068 13.9563L1.66251 9.98596C0.455368 8.77087 -0.131733 7.21753 0.0248818 5.65316ZM6.82226 1.51613C5.42039 1.51631 4.06984 1.95038 3.0387 2.73219C2.00757 3.514 1.37122 4.58639 1.25598 5.73648C1.12563 7.0384 1.61419 8.33114 2.61875 9.34241L6.56304 13.3135C6.61606 13.3669 6.68285 13.4099 6.75856 13.4395C6.83428 13.4691 6.91703 13.4844 7.00084 13.4844C7.08464 13.4844 7.16739 13.4691 7.24311 13.4395C7.31882 13.4099 7.38561 13.3669 7.43863 13.3135L11.3829 9.34241C12.3869 8.33094 12.8749 7.03821 12.744 5.73648C12.6288 4.58627 11.9923 3.51379 10.961 2.73196C9.9297 1.95014 8.57895 1.51614 7.17694 1.51613H6.82144H6.82226Z" fill="#018297"/>
</g>
</svg>
