<svg width="15" height="17" viewBox="0 0 15 17" fill="none" xmlns="http://www.w3.org/2000/svg">
<g id="Group">
<path id="Vector" d="M1 13.75V5.4375C1 4.39321 1.37533 3.39169 2.04343 2.65327C2.71153 1.91484 3.61767 1.5 4.5625 1.5H10.1042C10.572 1.5 11.0353 1.60185 11.4675 1.79972C11.8997 1.9976 12.2924 2.28764 12.6232 2.65327C12.954 3.0189 13.2165 3.45296 13.3955 3.93068C13.5745 4.4084 13.6667 4.92042 13.6667 5.4375V11.5625C13.6667 12.0796 13.5745 12.5916 13.3955 13.0693C13.2165 13.547 12.954 13.9811 12.6232 14.3467C12.2924 14.7124 11.8997 15.0024 11.4675 15.2003C11.0353 15.3982 10.572 15.5 10.1042 15.5H2.58333C2.16341 15.5 1.76068 15.3156 1.46375 14.9874C1.16681 14.6592 1 14.2141 1 13.75Z" stroke="#018297" stroke-width="2" stroke-linecap="round" stroke-linejoin="round"/>
<path id="Vector_2" d="M4.16663 8.5H6.93746C7.35739 8.5 7.76011 8.68437 8.05704 9.01256C8.35398 9.34075 8.52079 9.78587 8.52079 10.25C8.52079 10.7141 8.35398 11.1592 8.05704 11.4874C7.76011 11.8156 7.35739 12 6.93746 12H4.16663V5.875C4.16663 5.64294 4.25003 5.42038 4.3985 5.25628C4.54697 5.09219 4.74833 5 4.95829 5H6.14579C6.56572 5 6.96845 5.18437 7.26538 5.51256C7.56231 5.84075 7.72913 6.28587 7.72913 6.75C7.72913 7.21413 7.56231 7.65925 7.26538 7.98744C6.96845 8.31563 6.56572 8.5 6.14579 8.5H4.95829M10.5 12H10.5079" stroke="#018297" stroke-width="2" stroke-linecap="round" stroke-linejoin="round"/>
</g>
</svg>
