<svg width="16" height="16" viewBox="0 0 16 16" fill="none" xmlns="http://www.w3.org/2000/svg">
<g id="material-symbols:my-location" clip-path="url(#clip0_1_763)">
<path id="Vector" d="M7.33334 15.3V13.9667C5.94446 13.8111 4.75268 13.2362 3.75801 12.242C2.76335 11.2478 2.18846 10.056 2.03335 8.66668H0.700012V7.33334H2.03335C2.1889 5.94446 2.76401 4.75268 3.75868 3.75801C4.75335 2.76335 5.9449 2.18846 7.33334 2.03335V0.700012H8.66668V2.03335C10.0556 2.1889 11.2473 2.76401 12.242 3.75868C13.2367 4.75335 13.8116 5.9449 13.9667 7.33334H15.3V8.66668H13.9667C13.8111 10.0556 13.2362 11.2473 12.242 12.242C11.2478 13.2367 10.056 13.8116 8.66668 13.9667V15.3H7.33334ZM8.00001 12.6667C9.2889 12.6667 10.3889 12.2111 11.3 11.3C12.2111 10.3889 12.6667 9.2889 12.6667 8.00001C12.6667 6.71112 12.2111 5.61112 11.3 4.70001C10.3889 3.7889 9.2889 3.33335 8.00001 3.33335C6.71112 3.33335 5.61112 3.7889 4.70001 4.70001C3.7889 5.61112 3.33335 6.71112 3.33335 8.00001C3.33335 9.2889 3.7889 10.3889 4.70001 11.3C5.61112 12.2111 6.71112 12.6667 8.00001 12.6667ZM8.00001 10.6667C7.26668 10.6667 6.6389 10.4056 6.11668 9.88334C5.59446 9.36112 5.33334 8.73334 5.33334 8.00001C5.33334 7.26668 5.59446 6.6389 6.11668 6.11668C6.6389 5.59446 7.26668 5.33334 8.00001 5.33334C8.73334 5.33334 9.36112 5.59446 9.88334 6.11668C10.4056 6.6389 10.6667 7.26668 10.6667 8.00001C10.6667 8.73334 10.4056 9.36112 9.88334 9.88334C9.36112 10.4056 8.73334 10.6667 8.00001 10.6667Z" fill="white"/>
</g>
<defs>
<clipPath id="clip0_1_763">
<rect width="16" height="16" fill="white"/>
</clipPath>
</defs>
</svg>
