<svg width="14" height="15" viewBox="0 0 14 15" fill="none" xmlns="http://www.w3.org/2000/svg">
<g id="Group">
<path id="Vector" fill-rule="evenodd" clip-rule="evenodd" d="M7.00044 8.55001C7.74305 8.55001 8.45524 8.25501 8.98034 7.72991C9.50544 7.20481 9.80044 6.49262 9.80044 5.75001C9.80044 5.00741 9.50544 4.29522 8.98034 3.77011C8.45524 3.24501 7.74305 2.95001 7.00044 2.95001C6.25783 2.95001 5.54564 3.24501 5.02054 3.77011C4.49544 4.29522 4.20044 5.00741 4.20044 5.75001C4.20044 6.49262 4.49544 7.20481 5.02054 7.72991C5.54564 8.25501 6.25783 8.55001 7.00044 8.55001ZM7.00044 7.85001C7.27622 7.85001 7.54929 7.7957 7.80408 7.69016C8.05886 7.58463 8.29036 7.42994 8.48536 7.23494C8.68037 7.03993 8.83505 6.80843 8.94059 6.55365C9.04612 6.29886 9.10044 6.02579 9.10044 5.75001C9.10044 5.47424 9.04612 5.20116 8.94059 4.94638C8.83505 4.69159 8.68037 4.46009 8.48536 4.26509C8.29036 4.07009 8.05886 3.9154 7.80408 3.80987C7.54929 3.70433 7.27622 3.65001 7.00044 3.65001C6.44349 3.65001 5.90934 3.87126 5.51552 4.26509C5.12169 4.65891 4.90044 5.19306 4.90044 5.75001C4.90044 6.30697 5.12169 6.84111 5.51552 7.23494C5.90934 7.62876 6.44349 7.85001 7.00044 7.85001Z" fill="#018297"/>
<path id="Vector_2" fill-rule="evenodd" clip-rule="evenodd" d="M14 7.5C14 11.3661 10.8661 14.5 7 14.5C3.1339 14.5 0 11.3661 0 7.5C0 3.6339 3.1339 0.5 7 0.5C10.8661 0.5 14 3.6339 14 7.5ZM10.3705 12.8235C9.36284 13.4632 8.19354 13.8019 7 13.8C5.77797 13.8019 4.58201 13.4467 3.55915 12.778C3.47515 12.673 3.38975 12.5645 3.30365 12.4525C3.20361 12.3213 3.14961 12.1608 3.15 11.9958C3.15 11.6188 3.4209 11.3027 3.78315 11.2499C6.1789 10.8999 7.82845 10.93 10.2274 11.2621C10.4011 11.2873 10.5598 11.3745 10.6743 11.5076C10.7887 11.6407 10.8511 11.8108 10.85 11.9863C10.85 12.1543 10.7922 12.3174 10.6879 12.4448C10.5805 12.5757 10.4745 12.702 10.3705 12.8235ZM11.5448 11.8631C11.4888 11.2079 10.9914 10.6612 10.3232 10.5688C7.86765 10.229 6.15125 10.1964 3.682 10.5573C3.01 10.6552 2.51475 11.2068 2.45595 11.8638C1.32731 10.6917 0.697776 9.12718 0.7 7.5C0.7 4.02065 3.52065 1.2 7 1.2C10.4794 1.2 13.3 4.02065 13.3 7.5C13.3022 9.12683 12.673 10.691 11.5448 11.8631Z" fill="#018297"/>
</g>
</svg>
