<svg width="14" height="15" viewBox="0 0 14 15" fill="none" xmlns="http://www.w3.org/2000/svg">
<path id="Vector" d="M1.4 3.3H12.6V4.7H1.4V3.3ZM2.8 0.5H11.2V1.9H2.8V0.5ZM12.6 6.1H1.4C1.0287 6.1 0.672601 6.2475 0.41005 6.51005C0.1475 6.7726 0 7.1287 0 7.5V13.1C0 13.4713 0.1475 13.8274 0.41005 14.0899C0.672601 14.3525 1.0287 14.5 1.4 14.5H12.6C12.9713 14.5 13.3274 14.3525 13.5899 14.0899C13.8525 13.8274 14 13.4713 14 13.1V7.5C14 7.1287 13.8525 6.7726 13.5899 6.51005C13.3274 6.2475 12.9713 6.1 12.6 6.1ZM9.1 11H7.7V12.4H6.3V11H4.9V9.6H6.3V8.2H7.7V9.6H9.1V11Z" fill="#018297"/>
</svg>
