<svg width="14" height="15" viewBox="0 0 14 15" fill="none" xmlns="http://www.w3.org/2000/svg">
<path id="Vector" d="M1.47368 0.5C1.08284 0.5 0.708001 0.663888 0.431632 0.955612C0.155263 1.24733 0 1.643 0 2.05556V12.9444C0 13.357 0.155263 13.7527 0.431632 14.0444C0.708001 14.3361 1.08284 14.5 1.47368 14.5H11.7895C12.1803 14.5 12.5552 14.3361 12.8315 14.0444C13.1079 13.7527 13.2632 13.357 13.2632 12.9444V11.1711C13.4859 11.0354 13.6711 10.8405 13.8004 10.6058C13.9296 10.3711 13.9984 10.1048 14 9.83333V5.16667C13.9984 4.8952 13.9296 4.62889 13.8004 4.3942C13.6711 4.15951 13.4859 3.96462 13.2632 3.82889V2.05556C13.2632 1.643 13.1079 1.24733 12.8315 0.955612C12.5552 0.663888 12.1803 0.5 11.7895 0.5H1.47368ZM1.47368 2.05556H11.7895V3.61111H7.36842C6.97758 3.61111 6.60274 3.775 6.32637 4.06672C6.05 4.35845 5.89474 4.75411 5.89474 5.16667V9.83333C5.89474 10.2459 6.05 10.6416 6.32637 10.9333C6.60274 11.225 6.97758 11.3889 7.36842 11.3889H11.7895V12.9444H1.47368V2.05556ZM7.36842 5.16667H12.5263V9.83333H7.36842V5.16667ZM9.57895 6.33333C9.28581 6.33333 9.00469 6.45625 8.79741 6.67504C8.59013 6.89384 8.47368 7.19058 8.47368 7.5C8.47368 7.80942 8.59013 8.10617 8.79741 8.32496C9.00469 8.54375 9.28581 8.66667 9.57895 8.66667C9.87208 8.66667 10.1532 8.54375 10.3605 8.32496C10.5678 8.10617 10.6842 7.80942 10.6842 7.5C10.6842 7.19058 10.5678 6.89384 10.3605 6.67504C10.1532 6.45625 9.87208 6.33333 9.57895 6.33333Z" fill="#018297"/>
</svg>
