<svg width="14" height="15" viewBox="0 0 14 15" fill="none" xmlns="http://www.w3.org/2000/svg">
<path id="Vector" d="M13.8422 9.33097L12.3846 8.02416V6.29302C12.3829 5.09668 11.8866 3.94339 10.9914 3.05616C10.0963 2.16893 8.866 1.61078 7.53846 1.48964V0.5H6.46154V1.48964C5.134 1.61078 3.90372 2.16893 3.00858 3.05616C2.11345 3.94339 1.61705 5.09668 1.61538 6.29302V8.02416L0.157769 9.33097C0.0567811 9.42148 3.04971e-05 9.54425 0 9.67228V11.1205C0 11.2486 0.0567306 11.3714 0.157712 11.4619C0.258693 11.5524 0.395653 11.6033 0.538462 11.6033H4.30769V11.9784C4.29598 12.5908 4.53676 13.1856 4.98388 13.6487C5.43101 14.1119 6.05304 14.4108 6.73077 14.4882C7.1051 14.5215 7.48305 14.4842 7.84032 14.3786C8.19759 14.2731 8.52626 14.1017 8.80521 13.8754C9.08415 13.6492 9.30718 13.3731 9.45996 13.0649C9.61275 12.7567 9.69189 12.4233 9.69231 12.086V11.6033H13.4615C13.6043 11.6033 13.7413 11.5524 13.8423 11.4619C13.9433 11.3714 14 11.2486 14 11.1205V9.67228C14 9.54425 13.9432 9.42148 13.8422 9.33097ZM8.61539 12.086C8.61539 12.4701 8.44519 12.8385 8.14225 13.1101C7.83931 13.3817 7.42843 13.5343 7 13.5343C6.57157 13.5343 6.16069 13.3817 5.85775 13.1101C5.55481 12.8385 5.38462 12.4701 5.38462 12.086V11.6033H8.61539V12.086ZM12.9231 10.6378H1.07692V9.87214L2.53454 8.56533C2.63553 8.47481 2.69228 8.35205 2.69231 8.22402V6.29302C2.69231 5.26875 3.14615 4.28643 3.954 3.56216C4.76185 2.83789 5.85753 2.43101 7 2.43101C8.14247 2.43101 9.23815 2.83789 10.046 3.56216C10.8538 4.28643 11.3077 5.26875 11.3077 6.29302V8.22402C11.3077 8.35205 11.3645 8.47481 11.4655 8.56533L12.9231 9.87214V10.6378Z" fill="#018297"/>
</svg>
