<svg width="24" height="24" viewBox="0 0 24 24" fill="none" xmlns="http://www.w3.org/2000/svg">
<g id="Group 1257">
<g id="Ellipse 175" filter="url(#filter0_i_2_733)">
<circle cx="12" cy="12" r="12" fill="white"/>
</g>
<path id="Vector" d="M5.65093 18.1463C5.67523 18.1463 5.69941 18.1428 5.72269 18.136L10.7405 16.669C10.7809 16.6572 10.8176 16.6357 10.8474 16.6064L15.9103 11.5811C15.9219 11.5693 15.9279 11.555 15.9364 11.5417L17.7719 9.74032C17.9182 9.59632 18.0004 9.40125 18.0004 9.19789C18.0004 8.99453 17.9182 8.79947 17.7719 8.65547L15.1446 6.07802C14.998 5.93434 14.7993 5.85364 14.5921 5.85364C14.385 5.85364 14.1863 5.93434 14.0397 6.07802L12.1635 7.91927C12.1515 7.93108 12.1455 7.94586 12.1364 7.95915L7.05943 12.9422C7.03135 12.9696 7.01036 13.0032 6.99821 13.0402L5.41259 17.8243C5.40041 17.8612 5.39729 17.9004 5.4035 17.9387C5.4097 17.977 5.42505 18.0134 5.44828 18.0448C5.47152 18.0762 5.50199 18.1018 5.53721 18.1194C5.57242 18.137 5.61139 18.1463 5.65093 18.1463ZM12.3542 8.44125L12.8761 8.9534L8.59939 13.1702L7.73282 12.9771L12.3542 8.44125ZM8.9125 13.5597L13.2313 9.30204L14.4526 10.5007L10.0646 14.7096H8.9125V13.5597ZM15.3779 11.4087L10.7385 16.014L10.4494 15.0296L14.8069 10.8493L15.3779 11.4087ZM7.40365 13.409L8.41072 13.6336V14.9558C8.41072 15.0211 8.43715 15.0837 8.4842 15.1299C8.53125 15.1761 8.59507 15.202 8.66161 15.202H9.97828L10.2959 16.2854L6.0373 17.5303L7.40365 13.409ZM14.3944 6.42618C14.4471 6.37506 14.5181 6.34638 14.5921 6.34638C14.6662 6.34638 14.7372 6.37506 14.7898 6.42618L17.4167 9.00412C17.4691 9.05565 17.4986 9.12552 17.4986 9.19839C17.4986 9.27125 17.4691 9.34113 17.4167 9.39265L15.7247 11.0532L12.7024 8.08719L14.3944 6.42618Z" fill="black"/>
</g>
<defs>
<filter id="filter0_i_2_733" x="0" y="0" width="24" height="24" filterUnits="userSpaceOnUse" color-interpolation-filters="sRGB">
<feFlood flood-opacity="0" result="BackgroundImageFix"/>
<feBlend mode="normal" in="SourceGraphic" in2="BackgroundImageFix" result="shape"/>
<feColorMatrix in="SourceAlpha" type="matrix" values="0 0 0 0 0 0 0 0 0 0 0 0 0 0 0 0 0 0 127 0" result="hardAlpha"/>
<feOffset/>
<feGaussianBlur stdDeviation="2"/>
<feComposite in2="hardAlpha" operator="arithmetic" k2="-1" k3="1"/>
<feColorMatrix type="matrix" values="0 0 0 0 0 0 0 0 0 0 0 0 0 0 0 0 0 0 0.25 0"/>
<feBlend mode="normal" in2="shape" result="effect1_innerShadow_2_733"/>
</filter>
</defs>
</svg>
