<svg width="14" height="15" viewBox="0 0 14 15" fill="none" xmlns="http://www.w3.org/2000/svg">
<g id="Group 1454">
<path id="Vector" d="M7 14.5C3.12941 14.5 0 11.3706 0 7.5C0 3.62941 3.12941 0.5 7 0.5C10.8706 0.5 14 3.62941 14 7.5C14 11.3706 10.8706 14.5 7 14.5ZM7 1.32353C3.58235 1.32353 0.823529 4.08235 0.823529 7.5C0.823529 10.9176 3.58235 13.6765 7 13.6765C10.4176 13.6765 13.1765 10.9176 13.1765 7.5C13.1765 4.08235 10.4176 1.32353 7 1.32353Z" fill="#018297"/>
<path id="Vector_2" d="M4.85416 5.27626C4.97769 4.94685 5.10122 4.69979 5.34828 4.49391C5.55416 4.28802 5.80122 4.12332 6.13063 3.99979C6.46004 3.87626 6.78945 3.83508 7.16004 3.83508C7.44828 3.83508 7.73651 3.87626 7.98357 3.95861C8.23063 4.04097 8.47769 4.16449 8.68357 4.3292C8.88945 4.49391 9.05416 4.69979 9.13651 4.94685C9.26004 5.19391 9.30122 5.48214 9.30122 5.77038C9.30122 6.18214 9.21886 6.51155 9.05416 6.79979C8.88945 7.08802 8.64239 7.33508 8.39533 7.62332L7.86004 8.15861C7.73651 8.28214 7.61298 8.40567 7.57181 8.5292C7.48945 8.65273 7.44828 8.81744 7.44828 8.98214C7.4071 9.14685 7.4071 9.27038 7.4071 9.59979H6.74828C6.74828 9.27038 6.74828 9.14685 6.78945 8.89979C6.83063 8.69391 6.91298 8.48802 6.99534 8.28214C7.07769 8.11744 7.20122 7.95273 7.36592 7.78802C7.53063 7.62332 7.73651 7.45861 7.94239 7.21155C8.14828 7.00567 8.31298 6.79979 8.43651 6.59391C8.56004 6.38802 8.64239 6.09979 8.64239 5.85273C8.64239 5.64685 8.60122 5.44097 8.51886 5.27626C8.43651 5.11155 8.31298 4.94685 8.18945 4.82332C8.06592 4.69979 7.90122 4.61744 7.69534 4.53508C7.48945 4.45273 7.32475 4.41155 7.11886 4.41155C6.83063 4.41155 6.58357 4.45273 6.37769 4.57626C6.17181 4.65861 5.96592 4.82332 5.84239 4.98802C5.71887 5.15273 5.59534 5.35861 5.51298 5.60567C5.43063 5.85273 5.34828 5.97626 5.34828 6.26449H4.68945C4.68945 5.89391 4.73063 5.60567 4.85416 5.27626ZM7.4071 10.3821V11.2057H6.58357V10.3821H7.4071Z" fill="#018297"/>
</g>
</svg>
