<svg width="14" height="14" viewBox="0 0 14 14" fill="none" xmlns="http://www.w3.org/2000/svg">
<g id="Group 1474">
<g id="Group 1473">
<path id="Vector" d="M13.125 7.86388C13.6082 7.86388 14 7.44967 14 6.93871C14 6.42776 13.6082 6.01355 13.125 6.01355C12.6418 6.01355 12.25 6.42776 12.25 6.93871C12.25 7.44967 12.6418 7.86388 13.125 7.86388Z" fill="#018297"/>
<path id="Vector_2" d="M0.875 7.86388C1.35825 7.86388 1.75 7.44967 1.75 6.93871C1.75 6.42776 1.35825 6.01355 0.875 6.01355C0.391751 6.01355 0 6.42776 0 6.93871C0 7.44967 0.391751 7.86388 0.875 7.86388Z" fill="#018297"/>
<path id="Vector_3" d="M7 7.86388C7.48325 7.86388 7.875 7.44967 7.875 6.93871C7.875 6.42776 7.48325 6.01355 7 6.01355C6.51675 6.01355 6.125 6.42776 6.125 6.93871C6.125 7.44967 6.51675 7.86388 7 7.86388Z" fill="#018297"/>
<g id="Group 1472">
<path id="Vector_4" d="M12.2189 8.52439C11.9769 8.89144 11.6546 9.19126 11.2795 9.3984C10.9043 9.60554 10.4875 9.71386 10.0643 9.71415C9.61081 9.71605 9.16475 9.59288 8.77008 9.35681C8.37542 9.12075 8.04579 8.77995 7.81375 8.36804L7.06431 8.84589C7.37372 9.39481 7.81315 9.84893 8.33924 10.1634C8.86533 10.4779 9.4599 10.642 10.0643 10.6393C10.6779 10.6374 11.2803 10.4646 11.8108 10.1383C10.7853 11.8476 8.97531 12.9522 7.00175 12.9522C4.50363 12.9522 2.26144 11.1861 1.54963 8.65716L0.710938 8.92083C1.533 11.8393 4.11906 13.8774 7.00175 13.8774C9.88444 13.8774 12.4709 11.8393 13.2926 8.92083L12.2189 8.52439Z" fill="#018297"/>
<path id="Vector_5" d="M7.00175 0C4.11906 0 1.53256 2.03813 0.710938 4.95656L1.78456 5.35299C2.27588 4.60824 3.08175 4.16323 3.93925 4.16323C4.79675 4.16323 5.60263 4.60777 6.09394 5.35299L6.81144 4.8238C6.48875 4.33458 6.05913 3.93495 5.55909 3.65887C5.05904 3.3828 4.50336 3.23845 3.93925 3.23807C3.32553 3.24011 2.72315 3.41306 2.19275 3.73951C3.21825 2.02981 5.02819 0.925163 7.00175 0.925163C9.49988 0.925163 11.7421 2.6913 12.4539 5.22023L13.2926 4.95656C12.4705 2.03813 9.88444 0 7.00175 0Z" fill="#018297"/>
</g>
</g>
</g>
</svg>
