<svg width="40" height="40" viewBox="0 0 40 40" fill="none" xmlns="http://www.w3.org/2000/svg">
<g id="fad:roundswitch-on">
<path id="Vector" fill-rule="evenodd" clip-rule="evenodd" d="M36.0938 19.9999C36.0938 18.6457 35.8266 17.3514 35.2922 16.1171C34.7578 14.8827 34.0428 13.8202 33.1469 12.9296C32.2511 12.0389 31.1823 11.328 29.9406 10.7968C28.6991 10.2655 27.3972 9.99988 26.0352 9.99988H13.9648C12.6028 9.99988 11.3008 10.2655 10.0592 10.7968C8.81766 11.328 7.74891 12.0389 6.85297 12.9296C5.95719 13.8202 5.24203 14.8827 4.70766 16.1171C4.17344 17.3514 3.90625 18.6457 3.90625 19.9999C3.90625 21.3541 4.17344 22.6483 4.70781 23.8827C5.24219 25.1171 5.95719 26.1796 6.85312 27.0702C7.74891 27.9608 8.81766 28.6718 10.0594 29.203C11.3009 29.7343 12.6028 29.9999 13.9648 29.9999H26.0352C27.3972 29.9999 28.6992 29.7343 29.9408 29.203C31.1823 28.6718 32.2511 27.9608 33.147 27.0702C34.0428 26.1796 34.758 25.1171 35.2923 23.8827C35.8266 22.6483 36.0938 21.3541 36.0938 19.9999ZM33.2812 19.9899C33.2812 21.0068 33.0687 21.9774 32.6437 22.9014C32.2187 23.8255 31.6442 24.6249 30.92 25.2997C30.1959 25.9744 29.338 26.5097 28.3463 26.9058C27.3547 27.3019 26.3131 27.4999 25.2219 27.4999H20.3047C21.1547 26.9058 22.8784 24.9769 23.4214 23.8622C23.9645 22.7474 24.303 21.056 24.303 20.0391C24.303 19.9169 24.3064 19.7927 24.3098 19.6646C24.3358 18.7272 24.3672 17.5821 23.1066 15.4721C22.2255 13.9971 20.9278 12.9163 20.3083 12.4799H20.2102C19.7981 12.1861 19.9203 12.2068 20.3083 12.4799H25.2219C26.3133 12.4799 27.3547 12.6778 28.3464 13.0738C29.3381 13.4699 30.1961 14.0053 30.9202 14.68C31.6444 15.3547 32.2189 16.1541 32.6439 17.0782C33.0663 17.9906 33.2838 18.9844 33.2812 19.9899ZM20.9692 22.9077C21.3647 21.9847 21.5625 21.0155 21.5625 19.9999C21.5625 18.9843 21.3647 18.015 20.9692 17.0922C20.5738 16.1693 20.0391 15.371 19.3652 14.6972C18.6914 14.0233 17.8931 13.4886 16.9703 13.0932C16.0473 12.6977 15.0781 12.4999 14.0625 12.4999C13.0469 12.4999 12.0777 12.6977 11.1548 13.0932C10.2319 13.4886 9.43359 14.0233 8.75984 14.6971C8.08594 15.371 7.55125 16.1693 7.15578 17.0921C6.76031 18.015 6.5625 18.9843 6.5625 19.9999C6.5625 21.0155 6.76031 21.9847 7.15578 22.9075C7.55125 23.8305 8.08594 24.6288 8.75984 25.3025C9.43359 25.9764 10.2319 26.5111 11.1547 26.9066C12.0777 27.3021 13.0469 27.4999 14.0625 27.4999C15.0781 27.4999 16.0473 27.3021 16.9702 26.9066C17.8931 26.5111 18.6914 25.9764 19.3652 25.3025C20.0391 24.6288 20.5738 23.8305 20.9692 22.9077Z" fill="#F45540"/>
</g>
</svg>
