<svg width="14" height="14" viewBox="0 0 14 14" fill="none" xmlns="http://www.w3.org/2000/svg">
<g id="Group 1540">
<path id="Vector" d="M4.375 0C3.91087 0 3.46575 0.143825 3.13756 0.399834C2.80937 0.655843 2.625 1.00307 2.625 1.36512H10.5C10.9641 1.36512 11.4092 1.50894 11.7374 1.76495C12.0656 2.02096 12.25 2.36818 12.25 2.73024V10.9209C12.7141 10.9209 13.1592 10.7771 13.4874 10.5211C13.8156 10.2651 14 9.91788 14 9.55583V1.36512C14 1.00307 13.8156 0.655843 13.4874 0.399834C13.1592 0.143825 12.7141 0 12.25 0L4.375 0Z" fill="#018297"/>
<path id="Vector_2" d="M9.625 8.19064L7.175 6.27947L4.725 8.19064V2.04761H1.75C0.7875 2.04761 0 2.66191 0 3.41273V12.286C0 13.0368 0.7875 13.6511 1.75 13.6511H9.625C10.5875 13.6511 11.375 13.0368 11.375 12.286V3.41273C11.375 2.66191 10.5875 2.04761 9.625 2.04761V8.19064Z" fill="#018297"/>
</g>
</svg>
