<svg width="14" height="15" viewBox="0 0 14 15" fill="none" xmlns="http://www.w3.org/2000/svg">
<path id="Vector" d="M2.275 0.934448C1.67163 0.934448 1.09298 1.23406 0.666332 1.76736C0.239687 2.30067 0 3.02399 0 3.7782V12.0907C0 12.8449 0.239687 13.5682 0.666332 14.1015C1.09298 14.6348 1.67163 14.9344 2.275 14.9344H11.725C12.0238 14.9344 12.3196 14.8609 12.5956 14.718C12.8716 14.5751 13.1224 14.3656 13.3337 14.1015C13.5449 13.8375 13.7125 13.524 13.8268 13.179C13.9412 12.8339 14 12.4641 14 12.0907V3.7782C14 3.40475 13.9412 3.03496 13.8268 2.68994C13.7125 2.34492 13.5449 2.03143 13.3337 1.76736C13.1224 1.5033 12.8716 1.29383 12.5956 1.15092C12.3196 1.008 12.0238 0.934448 11.725 0.934448H2.275ZM1.05 3.7782C1.05 2.93295 1.5988 2.24695 2.275 2.24695H11.725C12.4012 2.24695 12.95 2.93295 12.95 3.7782V12.0907C12.95 12.4968 12.8209 12.8863 12.5912 13.1735C12.3615 13.4606 12.0499 13.6219 11.725 13.6219H2.275C1.95011 13.6219 1.63853 13.4606 1.40879 13.1735C1.17906 12.8863 1.05 12.4968 1.05 12.0907V3.7782ZM2.1 4.2157C2.1 4.04165 2.15531 3.87473 2.25377 3.75166C2.35223 3.62859 2.48576 3.55945 2.625 3.55945H6.475C6.61424 3.55945 6.74777 3.62859 6.84623 3.75166C6.94469 3.87473 7 4.04165 7 4.2157C7 4.38975 6.94469 4.55667 6.84623 4.67974C6.74777 4.80281 6.61424 4.87195 6.475 4.87195H2.625C2.48576 4.87195 2.35223 4.80281 2.25377 4.67974C2.15531 4.55667 2.1 4.38975 2.1 4.2157ZM2.8 8.80945C2.61435 8.80945 2.4363 8.90164 2.30503 9.06573C2.17375 9.22982 2.1 9.45238 2.1 9.68445V11.4344C2.1 11.6665 2.17375 11.8891 2.30503 12.0532C2.4363 12.2173 2.61435 12.3094 2.8 12.3094H7.7C7.88565 12.3094 8.0637 12.2173 8.19497 12.0532C8.32625 11.8891 8.4 11.6665 8.4 11.4344V9.68445C8.4 9.45238 8.32625 9.22982 8.19497 9.06573C8.0637 8.90164 7.88565 8.80945 7.7 8.80945H2.8ZM2.1 6.4032C2.1 6.22915 2.15531 6.06223 2.25377 5.93916C2.35223 5.81609 2.48576 5.74695 2.625 5.74695H9.975C10.1142 5.74695 10.2478 5.81609 10.3462 5.93916C10.4447 6.06223 10.5 6.22915 10.5 6.4032C10.5 6.57725 10.4447 6.74417 10.3462 6.86724C10.2478 6.99031 10.1142 7.05945 9.975 7.05945H2.625C2.48576 7.05945 2.35223 6.99031 2.25377 6.86724C2.15531 6.74417 2.1 6.57725 2.1 6.4032Z" fill="#018297"/>
</svg>
