<svg width="16" height="17" viewBox="0 0 16 17" fill="none" xmlns="http://www.w3.org/2000/svg">
<g id="Group">
<path id="Vector" d="M5.9 14.1H3.8C3.05739 14.1 2.3452 13.805 1.8201 13.2799C1.295 12.7548 1 12.0426 1 11.3V5C1 4.25739 1.295 3.5452 1.8201 3.0201C2.3452 2.495 3.05739 2.2 3.8 2.2H11.5C12.2426 2.2 12.9548 2.495 13.4799 3.0201C14.005 3.5452 14.3 4.25739 14.3 5V7.1M5.2 1.5V2.9M10.1 1.5V2.9M1 5.7H14.3M12.55 11.0501L11.5 12.1001" stroke="#018297" stroke-width="2" stroke-linecap="round" stroke-linejoin="round"/>
<path id="Vector_2" d="M11.5 15.5C13.433 15.5 15 13.933 15 12C15 10.067 13.433 8.5 11.5 8.5C9.567 8.5 8 10.067 8 12C8 13.933 9.567 15.5 11.5 15.5Z" stroke="#018297" stroke-width="2" stroke-linecap="round" stroke-linejoin="round"/>
</g>
</svg>
