<svg width="14" height="15" viewBox="0 0 14 15" fill="none" xmlns="http://www.w3.org/2000/svg">
<path id="Vector" d="M13.2639 7.50081H11.7903C11.5949 7.50081 11.4075 7.57455 11.2693 7.70581C11.1311 7.83707 11.0535 8.0151 11.0535 8.20073C11.0535 8.38636 11.1311 8.56439 11.2693 8.69565C11.4075 8.82691 11.5949 8.90065 11.7903 8.90065V10.3005H10.9164C11.004 10.0764 11.0501 9.83959 11.0527 9.60057C11.0527 9.13836 10.8922 8.68907 10.5959 8.32238C10.2997 7.95569 9.88441 7.69208 9.41442 7.57245C8.94442 7.45282 8.446 7.48385 7.99646 7.66072C7.54692 7.83759 7.17137 8.15042 6.92806 8.55069C6.87892 8.63032 6.84684 8.7184 6.83368 8.80985C6.82052 8.90131 6.82652 8.99433 6.85136 9.08357C6.8762 9.17281 6.91937 9.2565 6.9784 9.32983C7.03742 9.40315 7.11113 9.46466 7.19529 9.51081C7.27944 9.55697 7.37237 9.58685 7.46873 9.59875C7.56509 9.61065 7.66298 9.60432 7.75675 9.58014C7.85053 9.55595 7.93834 9.51439 8.01514 9.45783C8.09194 9.40128 8.1562 9.33085 8.20422 9.25061C8.26889 9.14421 8.3619 9.05586 8.47391 8.99443C8.58591 8.93299 8.71297 8.90065 8.84231 8.90065C9.03772 8.90065 9.22513 8.97439 9.36331 9.10565C9.50149 9.23691 9.57912 9.41494 9.57912 9.60057C9.57912 9.7862 9.50149 9.96423 9.36331 10.0955C9.22513 10.2267 9.03772 10.3005 8.84231 10.3005C8.64689 10.3005 8.45948 10.3742 8.3213 10.5055C8.18312 10.6367 8.10549 10.8148 8.10549 11.0004C8.10549 11.186 8.18312 11.3641 8.3213 11.4953C8.45948 11.6266 8.64689 11.7003 8.84231 11.7003C9.03772 11.7003 9.22513 11.7741 9.36331 11.9053C9.50149 12.0366 9.57912 12.2146 9.57912 12.4002C9.57912 12.5859 9.50149 12.7639 9.36331 12.8952C9.22513 13.0264 9.03772 13.1002 8.84231 13.1002C8.71297 13.1002 8.58591 13.0678 8.47391 13.0064C8.3619 12.945 8.26889 12.8566 8.20422 12.7502C8.1562 12.67 8.09194 12.5995 8.01514 12.543C7.93834 12.4864 7.85053 12.4449 7.75675 12.4207C7.66298 12.3965 7.56509 12.3902 7.46873 12.4021C7.37237 12.414 7.27944 12.4438 7.19529 12.49C7.11113 12.5362 7.03742 12.5977 6.9784 12.671C6.91937 12.7443 6.8762 12.828 6.85136 12.9172C6.82652 13.0065 6.82052 13.0995 6.83368 13.191C6.84684 13.2824 6.87892 13.3705 6.92806 13.4501C7.17137 13.8504 7.54692 14.1632 7.99646 14.3401C8.446 14.517 8.94442 14.548 9.41442 14.4284C9.88441 14.3087 10.2997 14.0451 10.5959 13.6784C10.8922 13.3117 11.0527 12.8625 11.0527 12.4002C11.0501 12.1612 11.004 11.9244 10.9164 11.7003H11.7896V13.8001C11.7896 13.9857 11.8672 14.1637 12.0054 14.295C12.1435 14.4263 12.331 14.5 12.5264 14.5C12.7218 14.5 12.9092 14.4263 13.0474 14.295C13.1856 14.1637 13.2632 13.9857 13.2632 13.8001V8.90065C13.4586 8.90065 13.646 8.82691 13.7842 8.69565C13.9224 8.56439 14 8.38636 14 8.20073C14 8.0151 13.9224 7.83707 13.7842 7.70581C13.646 7.57455 13.4593 7.50081 13.2639 7.50081ZM4.44426 6.97097C4.46721 7.0607 4.50862 7.14523 4.56611 7.21968C4.62359 7.29414 4.69602 7.35705 4.77922 7.4048C4.86241 7.45255 4.95473 7.48419 5.05086 7.4979C5.14698 7.51161 5.24501 7.50712 5.3393 7.48468C5.43359 7.46224 5.52227 7.4223 5.60024 7.36717C5.67821 7.31203 5.74393 7.24278 5.7936 7.16341C5.84327 7.08404 5.87592 6.99612 5.88966 6.90471C5.90341 6.81331 5.89798 6.72022 5.87368 6.63081L4.5791 1.71039C4.48854 1.36476 4.27886 1.05784 3.98344 0.838497C3.68803 0.619156 3.32385 0.5 2.9489 0.5C2.57395 0.5 2.20978 0.619156 1.91436 0.838497C1.61894 1.05784 1.40926 1.36476 1.3187 1.71039L0.0233831 6.63081C-0.000910422 6.72022 -0.0063413 6.81331 0.0074035 6.90471C0.0211483 6.99612 0.053797 7.08404 0.103469 7.16341C0.153141 7.24278 0.218854 7.31203 0.296823 7.36717C0.374791 7.4223 0.463474 7.46224 0.557763 7.48468C0.652052 7.50712 0.750083 7.51161 0.846208 7.4979C0.942333 7.48419 1.03465 7.45255 1.11785 7.4048C1.20104 7.35705 1.27347 7.29414 1.33096 7.21968C1.38845 7.14523 1.42985 7.0607 1.4528 6.97097L1.86468 5.40106H4.03091L4.44426 6.97097ZM2.23382 4.00122L2.74738 2.05055C2.76287 2.01178 2.79041 1.9784 2.82634 1.95485C2.86226 1.9313 2.90488 1.91869 2.94853 1.91869C2.99218 1.91869 3.0348 1.9313 3.07073 1.95485C3.10666 1.9784 3.13419 2.01178 3.14968 2.05055L3.66324 4.00122H2.23382ZM8.10623 4.00122H8.84304C9.0384 4.00141 9.2257 4.07521 9.36383 4.20643C9.50197 4.33765 9.57966 4.51557 9.57985 4.70114V5.40106C9.57985 5.58669 9.65748 5.76471 9.79566 5.89597C9.93384 6.02723 10.1213 6.10098 10.3167 6.10098C10.5121 6.10098 10.6995 6.02723 10.8377 5.89597C10.9759 5.76471 11.0535 5.58669 11.0535 5.40106V4.70114C11.0529 4.14442 10.8198 3.61066 10.4054 3.217C9.991 2.82334 9.42911 2.60194 8.84304 2.60138H8.10623C7.91081 2.60138 7.7234 2.67512 7.58522 2.80638C7.44704 2.93764 7.36941 3.11567 7.36941 3.3013C7.36941 3.48693 7.44704 3.66496 7.58522 3.79622C7.7234 3.92748 7.91081 4.00122 8.10623 4.00122ZM5.15897 10.3005H4.42216C4.2268 10.3003 4.03951 10.2265 3.90137 10.0953C3.76323 9.96406 3.68554 9.78614 3.68535 9.60057V8.90065C3.68535 8.71502 3.60772 8.53699 3.46954 8.40573C3.33136 8.27447 3.14395 8.20073 2.94853 8.20073C2.75312 8.20073 2.56571 8.27447 2.42753 8.40573C2.28935 8.53699 2.21172 8.71502 2.21172 8.90065V9.60057C2.2123 10.1573 2.44538 10.691 2.85979 11.0847C3.2742 11.4784 3.83609 11.6998 4.42216 11.7003H5.15897C5.35439 11.7003 5.5418 11.6266 5.67998 11.4953C5.81816 11.3641 5.89579 11.186 5.89579 11.0004C5.89579 10.8148 5.81816 10.6367 5.67998 10.5055C5.5418 10.3742 5.35439 10.3005 5.15897 10.3005Z" fill="#018297"/>
</svg>
