<svg width="14" height="14" viewBox="0 0 14 14" fill="none" xmlns="http://www.w3.org/2000/svg">
<path id="Vector" d="M11.6667 14C11.0185 14 10.4676 13.7958 10.0139 13.3875C9.56019 12.9792 9.33333 12.4833 9.33333 11.9C9.33333 11.8183 9.33982 11.7336 9.35278 11.6459C9.36574 11.5582 9.38519 11.4795 9.41111 11.41L3.92778 8.54C3.70741 8.715 3.46111 8.8522 3.18889 8.9516C2.91667 9.051 2.63148 9.10047 2.33333 9.1C1.68519 9.1 1.13426 8.89583 0.680556 8.4875C0.226852 8.07917 0 7.58333 0 7C0 6.41667 0.226852 5.92083 0.680556 5.5125C1.13426 5.10417 1.68519 4.9 2.33333 4.9C2.63148 4.9 2.91667 4.9497 3.18889 5.0491C3.46111 5.1485 3.70741 5.28547 3.92778 5.46L9.41111 2.59C9.38519 2.52 9.36574 2.44137 9.35278 2.3541C9.33982 2.26683 9.33333 2.18213 9.33333 2.1C9.33333 1.51667 9.56019 1.02083 10.0139 0.6125C10.4676 0.204167 11.0185 0 11.6667 0C12.3148 0 12.8657 0.204167 13.3194 0.6125C13.7731 1.02083 14 1.51667 14 2.1C14 2.68333 13.7731 3.17917 13.3194 3.5875C12.8657 3.99583 12.3148 4.2 11.6667 4.2C11.3685 4.2 11.0833 4.15053 10.8111 4.0516C10.5389 3.95267 10.2926 3.81547 10.0722 3.64L4.58889 6.51C4.61481 6.58 4.63426 6.65887 4.64722 6.7466C4.66019 6.83433 4.66667 6.9188 4.66667 7C4.66667 7.08167 4.66019 7.16637 4.64722 7.2541C4.63426 7.34183 4.61481 7.42047 4.58889 7.49L10.0722 10.36C10.2926 10.185 10.5389 10.048 10.8111 9.9491C11.0833 9.85017 11.3685 9.80047 11.6667 9.8C12.3148 9.8 12.8657 10.0042 13.3194 10.4125C13.7731 10.8208 14 11.3167 14 11.9C14 12.4833 13.7731 12.9792 13.3194 13.3875C12.8657 13.7958 12.3148 14 11.6667 14Z" fill="#018297"/>
</svg>
