<svg width="14" height="14" viewBox="0 0 14 14" fill="none" xmlns="http://www.w3.org/2000/svg">
<path id="Vector" d="M7 14C4.99133 13.5329 3.32233 12.5803 1.993 11.1421C0.664333 9.70333 0 8.08271 0 6.28024V2.04697L7 0L14 2.04697V6.28024C14 7.15851 13.8257 8.01957 13.477 8.86341C13.1283 9.7062 12.5873 10.514 11.854 11.2869L8.769 8.8728C8.52033 9.02622 8.24433 9.14103 7.941 9.21722C7.63833 9.29446 7.32467 9.33307 7 9.33307C6.17533 9.33307 5.469 9.1032 4.881 8.64345C4.293 8.18369 3.99933 7.63079 4 6.98474C4 6.3392 4.29367 5.7863 4.881 5.32603C5.46833 4.86575 6.17467 4.63588 7 4.6364C7.82533 4.6364 8.53167 4.86628 9.119 5.32603C9.70633 5.78578 10 6.33868 10 6.98474C10 7.22635 9.95433 7.45962 9.863 7.68454C9.77167 7.90946 9.64667 8.12081 9.488 8.31859L11.719 10.0642C12.1037 9.49954 12.4137 8.9062 12.649 8.28415C12.883 7.66158 13 6.99361 13 6.28024V2.5816L7 0.836008L1 2.5816V6.28024C1 7.85884 1.56667 9.29393 2.7 10.5855C3.83333 11.8771 5.26667 12.7382 7 13.1687C7.43333 13.0643 7.846 12.9307 8.238 12.7679C8.63 12.6051 9.01733 12.4125 9.4 12.1902L10.03 12.7742C9.532 13.056 9.04867 13.295 8.58 13.4912C8.11133 13.6869 7.58467 13.8565 7 14ZM7 8.55029C7.55 8.55029 8.021 8.39713 8.413 8.0908C8.805 7.78448 9.00067 7.41579 9 6.98474C9 6.55421 8.80433 6.18578 8.413 5.87945C8.02167 5.57312 7.55067 5.4197 7 5.41918C6.45 5.41918 5.97933 5.5726 5.588 5.87945C5.19667 6.1863 5.00067 6.55473 5 6.98474C5 7.41526 5.196 7.78395 5.588 8.0908C5.98 8.39765 6.45067 8.55082 7 8.55029Z" fill="#018297"/>
</svg>
