<svg width="18" height="17" viewBox="0 0 18 17" fill="none" xmlns="http://www.w3.org/2000/svg">
<path id="Vector" d="M16 8.67212H2M12.5 1.67212H14.25C14.7141 1.67212 15.1592 1.85649 15.4874 2.18468C15.8156 2.51287 16 2.95799 16 3.42212V5.17212M5.5 15.6721H3.75C3.28587 15.6721 2.84075 15.4877 2.51256 15.1596C2.18437 14.8314 2 14.3862 2 13.9221V12.1721M16 12.1721V13.9221C16 14.3862 15.8156 14.8314 15.4874 15.1596C15.1592 15.4877 14.7141 15.6721 14.25 15.6721H12.5M2 5.17212V3.42212C2 2.95799 2.18437 2.51287 2.51256 2.18468C2.84075 1.85649 3.28587 1.67212 3.75 1.67212H5.5" stroke="#018297" stroke-width="2.5" stroke-linecap="round" stroke-linejoin="round"/>
</svg>
